<?xml version="1.0" encoding="UTF-8" standalone="no"?>
<svg width="40px" height="36px" viewBox="0 0 40 36" version="1.1" xmlns="http://www.w3.org/2000/svg" xmlns:xlink="http://www.w3.org/1999/xlink">
    <!-- Generator: Sketch 3.6.1 (26313) - http://www.bohemiancoding.com/sketch -->
    <title>iic-heart copy</title>
    <desc>Created with Sketch.</desc>
    <defs></defs>
    <g id="Page-1" stroke="none" stroke-width="1" fill="none" fill-rule="evenodd">
        <path d="M28.7930253,0.71561864 C25.4055508,0.71561864 22.3008088,2.28055549 20.2834999,4.90779353 C18.2661909,2.28007219 15.161449,0.71561864 11.7725246,0.71561864 C5.84432339,0.71561864 1.00307185,5.55493696 0.980356583,11.5029536 C0.95812462,17.904309 4.05368378,21.6784263 6.54173039,24.7121226 L7.0752975,25.3640991 C10.0210326,28.9961251 19.1540195,35.5197563 19.5406623,35.7957226 C19.7620154,35.9542462 20.0239659,36.033508 20.2839832,36.033508 C20.5444838,36.033508 20.805951,35.9537629 21.0277873,35.7957226 C21.4144302,35.5197563 30.5474171,28.9961251 33.4931522,25.3640991 L34.026236,24.7121226 C36.5137993,21.6784263 39.6098417,17.904309 39.5876098,11.5029536 C39.5644112,5.55493696 34.7226764,0.71561864 28.7930253,0.71561864 L28.7930253,0.71561864 Z" id="iic-heart-copy" fill="#FFFFFF"></path>
    </g>
</svg>