<?xml version="1.0" encoding="UTF-8" standalone="no"?>
<svg width="41px" height="36px" viewBox="0 0 41 36" version="1.1" xmlns="http://www.w3.org/2000/svg" xmlns:xlink="http://www.w3.org/1999/xlink">
    <!-- Generator: Sketch 3.6.1 (26313) - http://www.bohemiancoding.com/sketch -->
    <title>iic-share copy</title>
    <desc>Created with Sketch.</desc>
    <defs></defs>
    <g id="Page-1" stroke="none" stroke-width="1" fill="none" fill-rule="evenodd">
        <path d="M40.3391594,12.965973 C40.3391594,13.3510574 40.1984549,13.6843041 39.9170473,13.965713 L28.5422238,25.3405352 C28.2608162,25.6219441 27.9275682,25.7626486 27.5424838,25.7626486 C27.1573981,25.7626486 26.8241514,25.6219441 26.5427438,25.3405352 C26.2613348,25.0591275 26.1206304,24.7258809 26.1206304,24.3407952 L26.1206304,18.6533841 L21.1441453,18.6533841 C19.6926705,18.6533841 18.3930091,18.6978168 17.2451582,18.7866822 C16.0973087,18.875549 14.9568643,19.034766 13.8238248,19.2643359 C12.6907866,19.4939071 11.7058566,19.8086399 10.8690375,20.2085356 C10.032217,20.6084314 9.25093933,21.1231127 8.52520193,21.7525784 C7.79946453,22.3820453 7.20702527,23.1299991 6.74788547,23.996441 C6.28874567,24.8628815 5.92958014,25.8885417 5.67038755,27.0734189 C5.41119628,28.2582961 5.28159932,29.5986891 5.28159932,31.0945966 C5.28159932,31.9091995 5.31862703,32.8200741 5.39268243,33.8272204 C5.39268243,33.9160858 5.41119628,34.0901142 5.44822266,34.3493068 C5.48525036,34.608498 5.50376421,34.8047441 5.50376421,34.9380422 C5.50376421,35.1602071 5.44081765,35.3453443 5.31492452,35.4934538 C5.18903139,35.6415632 5.01500172,35.7156186 4.79283816,35.7156186 C4.55586192,35.7156186 4.34850838,35.5897255 4.17077753,35.3379393 C4.06710076,35.2046398 3.970829,35.041719 3.88196357,34.8491768 C3.79309815,34.6566346 3.69312388,34.4344697 3.58204077,34.1826834 C3.47095899,33.9308972 3.39320108,33.753165 3.34876837,33.6494882 C1.46777514,29.4283633 0.527279188,26.0884902 0.527279188,23.6298691 C0.527279188,20.6824868 0.919769917,18.2164606 1.70475138,16.2317906 C4.10412714,10.2629706 10.583926,7.27856059 21.1441453,7.27856059 L26.1206304,7.27856059 L26.1206304,1.59114951 C26.1206304,1.20606512 26.2613348,0.872817123 26.5427438,0.591409502 C26.8241514,0.310000554 27.1573981,0.169297407 27.5424838,0.169297407 C27.9275682,0.169297407 28.2608162,0.310000554 28.5422238,0.591409502 L39.9170473,11.966233 C40.1984549,12.2476406 40.3391594,12.5808873 40.3391594,12.965973 L40.3391594,12.965973 Z" id="iic-share-copy" fill="#FFFFFF"></path>
    </g>
</svg>