<?xml version="1.0" encoding="UTF-8" standalone="no"?>
<svg width="178px" height="215px" viewBox="0 0 178 215" version="1.1" xmlns="http://www.w3.org/2000/svg" xmlns:xlink="http://www.w3.org/1999/xlink">
    <!-- Generator: Sketch 3.6.1 (26313) - http://www.bohemiancoding.com/sketch -->
    <title>iic-man-dark</title>
    <desc>Created with Sketch.</desc>
    <defs></defs>
    <g id="Page-1" stroke="none" stroke-width="1" fill="none" fill-rule="evenodd">
        <path d="M118.747761,141.95513 L118.747761,126.207216 C118.747761,120.33599 126.701309,109.345953 130.084852,99.224012 C130.403216,98.2698454 132.442042,99.3683864 134.423488,96.9538173 C138.154085,92.3551227 138.703818,85.3705488 139.557108,82.1896848 C140.916633,77.1865569 134.842729,76.9838774 134.842729,76.9838774 C134.842729,76.9838774 139.369236,50.7234713 135.348965,34.1370749 C129.911788,11.5498864 100.643582,0.169297407 89.1908058,0.169297407 C77.7232219,0.169297407 48.4985134,11.5498864 43.032647,34.1370749 C39.0123755,50.7234713 43.6397599,76.9838774 43.6397599,76.9838774 C43.6397599,76.9838774 37.7833422,77.1865569 39.1280601,82.1896848 C39.9961574,85.3714743 40.9503241,92.3551227 44.7096111,96.9538173 C46.6762495,99.3683864 47.8617853,98.2698454 48.1801494,99.224012 C51.5636928,109.346878 59.517241,120.33599 59.517241,126.207216 L59.517241,141.95513 C59.517241,148.187291 39.2289371,162.54699 24.4213072,165.077244 C5.40553404,168.316413 0.459785655,214.243203 0.459785655,214.243203 L177.587729,214.243203 C177.587729,214.243203 172.859468,168.316413 153.828887,165.077244 C139.021257,162.54699 118.747761,148.187291 118.747761,141.95513 Z" id="iic-man-dark" fill="#006494"></path>
    </g>
</svg>