<?xml version="1.0" encoding="UTF-8" standalone="no"?>
<svg width="132px" height="159px" viewBox="0 0 132 159" version="1.1" xmlns="http://www.w3.org/2000/svg" xmlns:xlink="http://www.w3.org/1999/xlink">
    <!-- Generator: Sketch 3.6.1 (26313) - http://www.bohemiancoding.com/sketch -->
    <title>iic-man-white</title>
    <desc>Created with Sketch.</desc>
    <defs></defs>
    <g id="Page-1" stroke="none" stroke-width="1" fill="none" fill-rule="evenodd">
        <path d="M87.5190003,105.243203 L87.5190003,93.2432026 C88.0022309,88.9337764 93.8845034,80.8224376 96.5190003,73.2432026 C96.6223541,72.6475742 98.1302255,73.4583665 99.5190003,71.2432026 C102.354729,68.282137 102.7613,63.1270824 103.519,61.2432026 C104.39785,57.0867818 99.9057217,56.9371917 99.5190003,57.2432026 C99.9057217,56.9371917 103.253429,37.5553611 100.519,25.2432026 C96.2589045,8.64279278 74.6127717,0.243202612 66.5190003,0.243202612 C57.6613685,0.243202612 36.0474055,8.64279278 31.5190003,25.2432026 C29.0316628,37.5553611 32.4539763,56.9371917 32.5190003,57.2432026 C32.4539763,56.9371917 28.1226964,57.0867818 29.5190003,61.2432026 C29.7592467,63.1277655 30.4649277,68.282137 33.5190003,71.2432026 C34.6996984,73.4583665 35.5764951,72.6475742 35.5190003,73.2432026 C38.3143459,80.8231206 44.1966184,88.9337764 44.5190003,93.2432026 L44.5190003,105.243203 C44.1966184,109.489787 29.1918271,120.088148 18.5190003,122.243203 C4.17676893,124.346345 0.519000282,158.243203 0.519000282,158.243203 L131.519,158.243203 C131.519,158.243203 128.02208,124.346345 113.519,122.243203 C102.996071,120.088148 88.0022309,109.489787 87.5190003,105.243203 Z" id="iic-man-white" fill="#FFFFFF"></path>
    </g>
</svg>