<?xml version="1.0" encoding="UTF-8" standalone="no"?>
<svg width="38px" height="38px" viewBox="0 0 38 38" version="1.1" xmlns="http://www.w3.org/2000/svg" xmlns:xlink="http://www.w3.org/1999/xlink">
    <!-- Generator: Sketch 3.6.1 (26313) - http://www.bohemiancoding.com/sketch -->
    <title>iic-search copy</title>
    <desc>Created with Sketch.</desc>
    <defs></defs>
    <g id="Page-1" stroke="none" stroke-width="1" fill="none" fill-rule="evenodd">
        <path d="M36.5009067,36.697525 C35.1434486,38.0549832 32.9451077,38.0549832 31.5876495,36.697525 L25.4559231,30.5657986 C22.9332748,32.1803862 19.9519632,33.146359 16.7343704,33.146359 C7.77885315,33.146359 0.519000282,25.8865061 0.519000282,16.9309888 C0.519000282,7.97547151 7.77885315,0.71561864 16.7343704,0.71561864 C25.6898877,0.71561864 32.9497406,7.97547151 32.9497406,16.9309888 C32.9497406,20.1485815 31.9837679,23.1298932 30.3691803,25.6525415 L36.5009067,31.7842679 C37.8583648,33.141726 37.8583648,35.3400669 36.5009067,36.697525 L36.5009067,36.697525 Z M16.7343704,5.34858154 C10.3385652,5.34858154 5.15196319,10.532867 5.15196319,16.9309888 C5.15196319,23.3291106 10.3385652,28.5133961 16.7343704,28.5133961 C23.1324922,28.5133961 28.3167777,23.3291106 28.3167777,16.9309888 C28.3167777,10.532867 23.1324922,5.34858154 16.7343704,5.34858154 L16.7343704,5.34858154 Z" id="iic-search-copy" fill="#FFFFFF"></path>
    </g>
</svg>